<mxfile host="app.diagrams.net" modified="2022-03-18T15:34:18.959Z" agent="5.0 (X11)" etag="f5UVm_fU8HXUC4qgEvQQ" version="16.4.2" type="github">
  <diagram name="Page-1" id="e7e014a7-5840-1c2e-5031-d8a46d1fe8dd">
    <mxGraphModel dx="1422" dy="905" grid="1" gridSize="10" guides="1" tooltips="1" connect="1" arrows="1" fold="1" page="1" pageScale="1" pageWidth="1169" pageHeight="826" background="none" math="0" shadow="0">
      <root>
        <mxCell id="0" />
        <mxCell id="1" parent="0" />
        <mxCell id="cancNr_CZB2pUsivO69R-43" value="&amp;lt;name&amp;gt;Use Case View" style="shape=umlFrame;whiteSpace=wrap;html=1;width=150;height=40;" vertex="1" parent="1">
          <mxGeometry x="320" y="80" width="920" height="680" as="geometry" />
        </mxCell>
        <mxCell id="cancNr_CZB2pUsivO69R-52" value="&amp;lt;Event name&amp;gt;" style="html=1;verticalAlign=top;" vertex="1" parent="1">
          <mxGeometry x="550" y="150" width="580" height="560" as="geometry" />
        </mxCell>
        <mxCell id="cancNr_CZB2pUsivO69R-41" value="Actor" style="shape=umlActor;verticalLabelPosition=bottom;verticalAlign=top;html=1;outlineConnect=0;" vertex="1" parent="1">
          <mxGeometry x="440" y="585" width="30" height="60" as="geometry" />
        </mxCell>
        <mxCell id="cancNr_CZB2pUsivO69R-44" value="&lt;div&gt;Student&lt;/div&gt;" style="shape=umlActor;verticalLabelPosition=bottom;verticalAlign=top;html=1;outlineConnect=0;fillColor=rgb(255, 255, 255);strokeColor=rgb(0, 0, 0);fontColor=rgb(0, 0, 0);" vertex="1" parent="1">
          <mxGeometry x="440" y="220" width="30" height="60" as="geometry" />
        </mxCell>
        <mxCell id="cancNr_CZB2pUsivO69R-48" value="Use Case" style="ellipse;whiteSpace=wrap;html=1;" vertex="1" parent="1">
          <mxGeometry x="650" y="360" width="140" height="70" as="geometry" />
        </mxCell>
        <mxCell id="cancNr_CZB2pUsivO69R-49" value="Open rooms" style="ellipse;whiteSpace=wrap;html=1;" vertex="1" parent="1">
          <mxGeometry x="650" y="190" width="140" height="70" as="geometry" />
        </mxCell>
        <mxCell id="cancNr_CZB2pUsivO69R-53" value="Use Case" style="ellipse;whiteSpace=wrap;html=1;" vertex="1" parent="1">
          <mxGeometry x="650" y="280" width="140" height="70" as="geometry" />
        </mxCell>
        <mxCell id="cancNr_CZB2pUsivO69R-55" value="Use Case" style="ellipse;whiteSpace=wrap;html=1;" vertex="1" parent="1">
          <mxGeometry x="650" y="580" width="140" height="70" as="geometry" />
        </mxCell>
        <mxCell id="cancNr_CZB2pUsivO69R-57" value="&lt;div&gt;Student&lt;/div&gt;" style="shape=umlActor;verticalLabelPosition=bottom;verticalAlign=top;html=1;outlineConnect=0;fillColor=rgb(255, 255, 255);strokeColor=rgb(0, 0, 0);fontColor=rgb(0, 0, 0);" vertex="1" parent="1">
          <mxGeometry x="1190" y="185" width="30" height="60" as="geometry" />
        </mxCell>
        <mxCell id="cancNr_CZB2pUsivO69R-58" value="Use Case" style="ellipse;whiteSpace=wrap;html=1;" vertex="1" parent="1">
          <mxGeometry x="960" y="410" width="140" height="70" as="geometry" />
        </mxCell>
        <mxCell id="cancNr_CZB2pUsivO69R-72" value="" style="edgeStyle=orthogonalEdgeStyle;rounded=0;orthogonalLoop=1;jettySize=auto;html=1;dashed=1;startArrow=none;startFill=0;endArrow=open;endFill=0;" edge="1" parent="1" source="cancNr_CZB2pUsivO69R-59" target="cancNr_CZB2pUsivO69R-57">
          <mxGeometry relative="1" as="geometry" />
        </mxCell>
        <mxCell id="cancNr_CZB2pUsivO69R-59" value="Use Case" style="ellipse;whiteSpace=wrap;html=1;" vertex="1" parent="1">
          <mxGeometry x="960" y="180" width="140" height="70" as="geometry" />
        </mxCell>
        <mxCell id="cancNr_CZB2pUsivO69R-62" value="" style="endArrow=open;endFill=1;endSize=12;html=1;rounded=0;" edge="1" parent="1" source="cancNr_CZB2pUsivO69R-44" target="cancNr_CZB2pUsivO69R-49">
          <mxGeometry width="160" relative="1" as="geometry">
            <mxPoint x="650" y="460" as="sourcePoint" />
            <mxPoint x="810" y="460" as="targetPoint" />
          </mxGeometry>
        </mxCell>
        <mxCell id="cancNr_CZB2pUsivO69R-63" value="" style="endArrow=open;endFill=1;endSize=12;html=1;rounded=0;entryX=0;entryY=0.5;entryDx=0;entryDy=0;" edge="1" parent="1" source="cancNr_CZB2pUsivO69R-44" target="cancNr_CZB2pUsivO69R-53">
          <mxGeometry width="160" relative="1" as="geometry">
            <mxPoint x="480" y="258.58490566037744" as="sourcePoint" />
            <mxPoint x="661.2136842376044" y="241.4892750719241" as="targetPoint" />
          </mxGeometry>
        </mxCell>
        <mxCell id="cancNr_CZB2pUsivO69R-64" value="" style="endArrow=open;endFill=1;endSize=12;html=1;rounded=0;entryX=0;entryY=0.5;entryDx=0;entryDy=0;" edge="1" parent="1" source="cancNr_CZB2pUsivO69R-44" target="cancNr_CZB2pUsivO69R-48">
          <mxGeometry width="160" relative="1" as="geometry">
            <mxPoint x="490" y="268.58490566037744" as="sourcePoint" />
            <mxPoint x="671.2136842376044" y="251.4892750719241" as="targetPoint" />
          </mxGeometry>
        </mxCell>
        <mxCell id="cancNr_CZB2pUsivO69R-65" value="" style="endArrow=open;endFill=1;endSize=12;html=1;rounded=0;exitX=0.5;exitY=0.5;exitDx=0;exitDy=0;exitPerimeter=0;entryX=0;entryY=0.5;entryDx=0;entryDy=0;" edge="1" parent="1" source="cancNr_CZB2pUsivO69R-41" target="cancNr_CZB2pUsivO69R-55">
          <mxGeometry width="160" relative="1" as="geometry">
            <mxPoint x="500" y="278.58490566037744" as="sourcePoint" />
            <mxPoint x="681.2136842376044" y="261.4892750719241" as="targetPoint" />
          </mxGeometry>
        </mxCell>
        <mxCell id="cancNr_CZB2pUsivO69R-67" value="&amp;lt;&amp;lt;relation&amp;gt;&amp;gt;" style="html=1;verticalAlign=bottom;endArrow=open;dashed=1;endSize=8;rounded=0;entryX=0.014;entryY=0.614;entryDx=0;entryDy=0;entryPerimeter=0;exitX=1;exitY=0.5;exitDx=0;exitDy=0;" edge="1" parent="1" source="cancNr_CZB2pUsivO69R-49" target="cancNr_CZB2pUsivO69R-59">
          <mxGeometry relative="1" as="geometry">
            <mxPoint x="770" y="460" as="sourcePoint" />
            <mxPoint x="690" y="460" as="targetPoint" />
          </mxGeometry>
        </mxCell>
        <mxCell id="cancNr_CZB2pUsivO69R-68" value="&amp;lt;&amp;lt;relation&amp;gt;&amp;gt;" style="html=1;verticalAlign=bottom;endArrow=open;dashed=1;endSize=8;rounded=0;entryX=0.914;entryY=0.786;entryDx=0;entryDy=0;entryPerimeter=0;exitX=0.257;exitY=0.043;exitDx=0;exitDy=0;exitPerimeter=0;" edge="1" parent="1" source="cancNr_CZB2pUsivO69R-58" target="cancNr_CZB2pUsivO69R-49">
          <mxGeometry relative="1" as="geometry">
            <mxPoint x="800" y="235" as="sourcePoint" />
            <mxPoint x="971.96" y="232.98000000000002" as="targetPoint" />
          </mxGeometry>
        </mxCell>
        <mxCell id="cancNr_CZB2pUsivO69R-69" value="&amp;lt;&amp;lt;relation&amp;gt;&amp;gt;" style="html=1;verticalAlign=bottom;endArrow=open;dashed=1;endSize=8;rounded=0;entryX=1;entryY=0.5;entryDx=0;entryDy=0;exitX=0.329;exitY=0.971;exitDx=0;exitDy=0;exitPerimeter=0;" edge="1" parent="1" source="cancNr_CZB2pUsivO69R-58" target="cancNr_CZB2pUsivO69R-55">
          <mxGeometry relative="1" as="geometry">
            <mxPoint x="810" y="245" as="sourcePoint" />
            <mxPoint x="981.96" y="242.98000000000002" as="targetPoint" />
          </mxGeometry>
        </mxCell>
      </root>
    </mxGraphModel>
  </diagram>
</mxfile>